<svg 
 xmlns="http://www.w3.org/2000/svg"
 xmlns:xlink="http://www.w3.org/1999/xlink"
 width="20px" height="20px">
<path fill-rule="evenodd"  fill="rgb(168, 153, 104)"
 d="M19.986,4.132 L17.594,12.364 C17.486,12.759 17.126,13.033 16.717,13.033 L6.593,13.033 C6.175,13.033 5.811,12.748 5.710,12.342 L3.255,2.851 L0.549,1.751 C0.085,1.562 -0.140,1.032 0.049,0.567 C0.239,0.101 0.767,-0.123 1.234,0.067 L4.369,1.341 C4.638,1.450 4.839,1.683 4.909,1.965 L7.305,11.214 L16.024,11.214 L17.917,4.801 L7.114,4.801 C6.612,4.801 6.205,4.394 6.205,3.892 C6.205,3.390 6.612,2.983 7.114,2.983 L19.109,2.982 C19.392,2.982 19.659,3.115 19.831,3.340 C20.003,3.566 20.060,3.858 19.986,4.132 ZM7.507,14.344 C8.986,14.344 10.189,15.551 10.189,17.033 C10.189,18.514 8.986,19.719 7.507,19.719 C6.023,19.719 4.817,18.514 4.817,17.033 C4.817,15.551 6.023,14.344 7.507,14.344 ZM7.507,17.900 C7.983,17.900 8.371,17.511 8.371,17.033 C8.371,16.553 7.983,16.162 7.507,16.162 C7.026,16.162 6.635,16.553 6.635,17.033 C6.635,17.511 7.026,17.900 7.507,17.900 ZM15.476,14.344 C16.956,14.344 18.160,15.551 18.160,17.033 C18.160,18.514 16.956,19.719 15.476,19.719 C13.992,19.719 12.785,18.514 12.785,17.033 C12.785,15.551 13.992,14.344 15.476,14.344 ZM15.476,17.900 C15.953,17.900 16.342,17.511 16.342,17.033 C16.342,16.553 15.953,16.162 15.476,16.162 C14.994,16.162 14.603,16.553 14.603,17.033 C14.603,17.511 14.994,17.900 15.476,17.900 Z"/>
</svg>