<svg xmlns="http://www.w3.org/2000/svg" viewBox="0 0 199.49 199.22"><defs><style>.cls-1{fill:#fff;fill-rule:evenodd;}</style></defs><title>btn_cart_w</title><g id="レイヤー_2" data-name="レイヤー 2"><g id="レイヤー_1-2" data-name="レイヤー 1"><path id="icon_カート" data-name="icon カート" class="cls-1" d="M127.23,173.92a25.29,25.29,0,1,0,25.3-25.28h0A25.3,25.3,0,0,0,127.23,173.92Zm14.44,0a10.85,10.85,0,1,1,10.85,10.86A10.85,10.85,0,0,1,141.67,173.92Zm-88.11,0a25.24,25.24,0,1,0,25.29-25.28A25.24,25.24,0,0,0,53.56,173.92Zm14.44,0a10.85,10.85,0,1,1,10.85,10.86A10.85,10.85,0,0,1,68,173.92ZM.6,4.53A6.56,6.56,0,0,0,0,7.22a7.16,7.16,0,0,0,4.48,6.65S27.58,23.24,33,25.44c1.7,6.63,25.19,101.9,25.19,101.9a7.22,7.22,0,0,0,7,5.47H168a7.15,7.15,0,0,0,7-5.29l24.29-88.73A7.07,7.07,0,0,0,198,32.53a7.27,7.27,0,0,0-5.68-2.83H70.39a7.19,7.19,0,1,0,0,14.38h112.5c-3.79,13.66-18.12,66-20.41,74.35H70.78C68.3,108.61,46,18.44,46,18.44a7,7,0,0,0-4.18-5L10,.52a7.2,7.2,0,0,0-9.35,4Z"/></g></g></svg>