<svg xmlns="http://www.w3.org/2000/svg" viewBox="0 0 200 202.56"><defs><style>.cls-1{fill-rule:evenodd;}</style></defs><title>btn_mypage</title><g id="レイヤー_2" data-name="レイヤー 2"><g id="レイヤー_1-2" data-name="レイヤー 1"><path id="icon_マイページ" data-name="icon マイページ" class="cls-1" d="M42.8,60.31C42.8,90.8,66.8,136,100,136s57.2-45.24,57.2-75.72A57.26,57.26,0,1,0,42.8,54.21,56.42,56.42,0,0,0,42.8,60.31Zm14.62,0a42.67,42.67,0,1,1,85.08-6.7,41.63,41.63,0,0,1,0,6.7c0,23.57-19.48,61.1-42.54,61.1S57.44,83.88,57.44,60.31Zm77.4,71.28a7.16,7.16,0,0,0-1.56,4.51,7.29,7.29,0,0,0,2.78,5.75,97.79,97.79,0,0,0,26.12,13.47c15.66,6.08,23.17,9.6,23.17,23.23V188H14.63v-9.42c0-13.62,7.51-17.15,23.17-23.23a97.94,97.94,0,0,0,26.13-13.5,7.32,7.32,0,1,0-9-11.51,85.06,85.06,0,0,1-22.36,11.35C17.32,147.57,0,154.27,0,178.51v16.73a7.31,7.31,0,0,0,7.31,7.32H192.69a7.31,7.31,0,0,0,7.31-7.32V178.55c0-24.25-17.27-31-32.51-36.85a84.76,84.76,0,0,1-22.36-11.35,7.32,7.32,0,0,0-10.28,1.19l0,.05Z"/></g></g></svg>