<svg xmlns="http://www.w3.org/2000/svg" width="9.624" height="20" viewBox="0 0 9.624 20">
  <defs>
    <style>
      .cls-1 {
        fill-rule: evenodd;
      }
    </style>
  </defs>
  <path id="icon_ログイン_アウト" class="cls-1" d="M785.11,40.409l0-4.974H788.5a0.625,0.625,0,1,0,0-1.25h-3.394v-1.7H788.5a0.625,0.625,0,1,0,0-1.25h-3.395V30.624a0.625,0.625,0,1,0-1.249,0l0,9.788a4.816,4.816,0,1,0,5.465,4.762h0A4.819,4.819,0,0,0,785.11,40.409ZM784.5,48.75a3.576,3.576,0,1,1,3.577-3.575A3.582,3.582,0,0,1,784.5,48.75Z" transform="translate(-779.688 -30)"/>
</svg>
