<svg 
 xmlns="http://www.w3.org/2000/svg"
 xmlns:xlink="http://www.w3.org/1999/xlink"
 width="36px" height="36px">
<path fill-rule="evenodd"  fill="rgb(221, 177, 0)"
 d="M18.000,-0.000 C27.941,-0.000 36.000,8.059 36.000,18.000 C36.000,27.941 27.941,36.000 18.000,36.000 C8.059,36.000 -0.000,27.941 -0.000,18.000 C-0.000,8.059 8.059,-0.000 18.000,-0.000 Z"/>
<path fill-rule="evenodd"  fill="rgb(255, 255, 255)"
 d="M17.728,24.000 L17.728,15.828 L14.560,15.828 L14.560,13.902 C15.003,13.914 15.433,13.881 15.847,13.803 C16.261,13.725 16.632,13.587 16.963,13.389 C17.293,13.191 17.572,12.930 17.800,12.606 C18.027,12.282 18.178,11.880 18.250,11.400 L20.284,11.400 L20.284,24.000 L17.728,24.000 Z"/>
</svg>