<svg 
 xmlns="http://www.w3.org/2000/svg"
 xmlns:xlink="http://www.w3.org/1999/xlink"
 width="36px" height="36px">
<path fill-rule="evenodd"  fill="rgb(149, 149, 149)"
 d="M18.000,-0.000 C27.941,-0.000 36.000,8.059 36.000,18.000 C36.000,27.941 27.941,36.000 18.000,36.000 C8.059,36.000 -0.000,27.941 -0.000,18.000 C-0.000,8.059 8.059,-0.000 18.000,-0.000 Z"/>
<path fill-rule="evenodd"  fill="rgb(255, 255, 255)"
 d="M14.146,14.235 C14.337,13.617 14.625,13.077 15.010,12.615 C15.394,12.153 15.876,11.793 16.459,11.535 C17.041,11.277 17.710,11.148 18.466,11.148 C19.042,11.148 19.591,11.238 20.113,11.418 C20.635,11.598 21.094,11.856 21.490,12.192 C21.886,12.528 22.201,12.942 22.435,13.434 C22.669,13.926 22.786,14.478 22.786,15.090 C22.786,15.726 22.684,16.272 22.480,16.728 C22.275,17.184 22.005,17.589 21.670,17.943 C21.334,18.297 20.952,18.618 20.527,18.906 C20.101,19.194 19.672,19.479 19.240,19.761 C18.808,20.043 18.387,20.346 17.980,20.670 C17.572,20.994 17.212,21.372 16.900,21.804 L22.858,21.804 L22.858,24.000 L13.606,24.000 C13.606,23.268 13.711,22.632 13.921,22.092 C14.130,21.552 14.416,21.069 14.776,20.643 C15.136,20.217 15.559,19.824 16.045,19.464 C16.531,19.104 17.044,18.738 17.584,18.366 C17.860,18.174 18.153,17.979 18.466,17.781 C18.778,17.583 19.062,17.364 19.321,17.124 C19.579,16.884 19.795,16.614 19.969,16.314 C20.142,16.014 20.230,15.672 20.230,15.288 C20.230,14.676 20.052,14.199 19.699,13.857 C19.345,13.515 18.891,13.344 18.340,13.344 C17.968,13.344 17.653,13.431 17.395,13.605 C17.136,13.779 16.929,14.007 16.774,14.289 C16.618,14.571 16.506,14.883 16.441,15.225 C16.375,15.567 16.342,15.906 16.342,16.242 L13.894,16.242 C13.869,15.522 13.954,14.853 14.146,14.235 Z"/>
</svg>