<svg xmlns="http://www.w3.org/2000/svg" width="29.812" height="21" viewBox="0 0 29.812 21">
  <defs>
    <style>
      .cls-1 {
        fill: #fff;
        fill-rule: evenodd;
      }
    </style>
  </defs>
  <path id="icn_sns_yt" class="cls-1" d="M874.282,5477.78a3.735,3.735,0,0,0-2.64-2.65c-2.319-.63-11.644-0.63-11.644-0.63s-9.318,0-11.646.63a3.734,3.734,0,0,0-2.634,2.65,42.148,42.148,0,0,0,0,14.44,3.734,3.734,0,0,0,2.634,2.65c2.328,0.63,11.646.63,11.646,0.63s9.325,0,11.644-.63a3.735,3.735,0,0,0,2.64-2.65,42.215,42.215,0,0,0,0-14.44m-17.332,11.65,7.79-4.43-7.79-4.43v8.86Z" transform="translate(-845.094 -5474.5)"/>
</svg>
